<svg width="245" height="158" viewBox="0 0 245 158" fill="none" xmlns="http://www.w3.org/2000/svg">
<path d="M101.619 58.2399L227.877 92.0707C230.249 92.7061 230.38 96.0226 228.066 96.8426L134.892 129.852C134.416 130.021 133.899 130.041 133.411 129.91L14.9388 98.1657C12.6282 97.5466 12.4229 94.3482 14.6352 93.4388L100.022 58.3426C100.529 58.1343 101.09 58.0982 101.619 58.2399Z" fill="#159747" fill-opacity="0.34" stroke="#159747" stroke-width="5"/>
<path d="M101.619 25.2399L227.877 59.0707C230.249 59.7061 230.38 63.0226 228.066 63.8426L134.892 96.8523C134.416 97.021 133.899 97.0411 133.411 96.9103L14.9388 65.1657C12.6282 64.5466 12.4229 61.3482 14.6352 60.4388L100.022 25.3426C100.529 25.1343 101.09 25.0982 101.619 25.2399Z" fill="#F7D232" fill-opacity="0.34" stroke="#F7D232" stroke-width="5"/>
</svg>
